<svg width="62" height="62" viewBox="0 0 62 62" fill="none" xmlns="http://www.w3.org/2000/svg">
<g clip-path="url(#clip0_1192_11295)">
<path fill-rule="evenodd" clip-rule="evenodd" d="M31 7.21113C44.1387 7.21113 54.7889 17.8625 54.7889 31C54.7889 44.1375 44.1387 54.7889 31 54.7889C17.8625 54.7889 7.21113 44.1375 7.21113 31C7.21113 17.8625 17.8625 7.21113 31 7.21113ZM31 0C39.5589 0 47.3101 3.47055 52.9204 9.07961C58.5295 14.6899 62 22.4399 62 31C62 39.5601 58.5295 47.3113 52.9204 52.9204C47.3113 58.5295 39.5601 62 31 62C22.4399 62 14.6899 58.5295 9.07961 52.9204C3.47055 47.3101 0 39.5589 0 31C0 22.4399 3.47055 14.6899 9.07961 9.07961C14.6899 3.47055 22.4399 0 31 0ZM50.7722 11.2278C45.7117 6.16852 38.7209 3.03824 31 3.03824C23.2779 3.03824 16.2871 6.16852 11.2278 11.2278C6.16852 16.2871 3.03824 23.2779 3.03824 31C3.03824 38.7209 6.16852 45.7117 11.2278 50.7722C16.2871 55.8315 23.2779 58.9618 31 58.9618C38.7221 58.9618 45.7129 55.8315 50.7722 50.7722C55.8315 45.7129 58.9618 38.7221 58.9618 31C58.9618 23.2779 55.8315 16.2871 50.7722 11.2278ZM34.651 26.4917C34.5795 25.6804 34.2538 25.0555 33.675 24.6014C33.2741 24.2878 32.751 24.0819 32.1104 23.9862V28.6907L33.2778 28.9547C34.3882 29.1981 35.3739 29.5178 36.2313 29.9211C37.0838 30.3243 37.8018 30.8087 38.3855 31.3669C38.9692 31.9191 39.4124 32.5645 39.7115 33.2887C40.0118 34.0164 40.1668 34.8326 40.1765 35.7299C40.1668 37.1552 39.8059 38.3746 39.0975 39.3966C38.3855 40.415 37.3623 41.1997 36.0302 41.7422C34.9186 42.1963 33.6108 42.4591 32.1104 42.5318V45.0832H30.3025V42.5305C28.7973 42.453 27.4592 42.1794 26.2907 41.7059C24.886 41.1428 23.7961 40.2855 23.0211 39.1339C22.2413 37.9823 21.8441 36.5255 21.8223 34.7648H27.039C27.0802 35.4877 27.2764 36.0968 27.6166 36.5776C27.963 37.0632 28.4389 37.4301 29.0419 37.6771C29.4258 37.837 29.846 37.9447 30.3025 38.0028V33.038L28.6859 32.6626C26.7351 32.2146 25.2008 31.4904 24.0746 30.489C22.9533 29.4875 22.3963 28.1337 22.4011 26.4239C22.3963 25.0301 22.7729 23.8058 23.5273 22.7571C24.2817 21.7097 25.3243 20.8935 26.6624 20.305C27.7535 19.8279 28.9656 19.5445 30.3025 19.4561V16.9168H32.1104V19.4525C33.4897 19.5361 34.7127 19.823 35.7771 20.3098C37.068 20.9032 38.0646 21.7303 38.7779 22.7935C39.4911 23.8579 39.852 25.087 39.8677 26.4917H34.651ZM30.3025 23.9862C29.9877 24.0323 29.7055 24.1025 29.4561 24.1982C28.9862 24.3846 28.635 24.6377 28.4025 24.9526C28.1652 25.2723 28.0465 25.6392 28.0356 26.0473C28.0247 26.3888 28.0925 26.683 28.2427 26.9409C28.3916 27.1989 28.6145 27.4217 28.9027 27.6166C29.1933 27.814 29.5445 27.9836 29.9513 28.1289C30.0652 28.1688 30.1826 28.2076 30.3025 28.2439V23.9862ZM32.1104 37.9895C32.4459 37.9399 32.7522 37.8624 33.0295 37.7546C33.5454 37.5584 33.9438 37.2848 34.2223 36.9336C34.502 36.5776 34.6461 36.1743 34.651 35.7202C34.6461 35.2964 34.5117 34.9307 34.2538 34.6255C33.9959 34.3204 33.6023 34.0576 33.0707 33.8348C32.791 33.7161 32.4701 33.6023 32.1104 33.4933V37.9895Z" fill="black"/>
</g>
<defs>
<clipPath id="clip0_1192_11295">
<rect width="62" height="62" fill="white"/>
</clipPath>
</defs>
</svg>
