<svg width="24" height="24" viewBox="0 0 24 24" fill="none" xmlns="http://www.w3.org/2000/svg">
<path d="M12 2C17.514 2 22 6.486 22 12C22 17.514 17.514 22 12 22C6.486 22 2 17.514 2 12C2 6.486 6.486 2 12 2ZM12 0C5.373 0 0 5.373 0 12C0 18.627 5.373 24 12 24C18.627 24 24 18.627 24 12C24 5.373 18.627 0 12 0Z" fill="#B8FC50"/>
<path d="M10.5 16.5005C10.08 16.5005 9.68 16.3245 9.406 16.0165L6.443 13.0465C6.169 12.7865 6 12.3935 6 11.9865C6 11.5815 6.17 11.1885 6.462 10.9085C6.944 10.3955 8.019 10.3585 8.575 10.9455L10.5 12.8755L15.443 7.9175C15.963 7.3675 17.018 7.3475 17.575 7.9375C17.831 8.1795 18 8.5715 18 8.9775C18 9.3795 17.836 9.7675 17.55 10.0455L11.557 16.0575C11.319 16.3245 10.92 16.5005 10.5 16.5005Z" fill="#B8FC50"/>
</svg>
