<svg width="40" height="43" viewBox="0 0 40 43" fill="none" xmlns="http://www.w3.org/2000/svg">
<g clip-path="url(#clip0_1192_11459)">
<path fill-rule="evenodd" clip-rule="evenodd" d="M37.1081 2.58442C39.3329 4.33784 39.571 6.62787 39.8162 7.185L39.9371 8.0395C40.2569 9.88178 39.3507 12.3974 37.9539 13.9799L31.7025 20.9526C29.3 23.6323 25.2911 24.5209 21.9362 23.1298L21.9255 23.1435C23.1516 25.0678 23.045 26.4384 23.1552 26.7563C23.4751 28.6054 22.5688 31.1108 21.1721 32.6967L14.9171 39.6694C11.8855 43.0498 6.5368 43.4633 3.0006 40.5615C1.20939 38.8388 0.214279 37.3793 0.0259184 34.9252C-0.141118 32.7924 0.569677 30.6972 2.01259 29.0532L8.38132 21.9472C10.1619 20.1904 11.0468 19.9443 13.1188 19.394L14.0073 19.2778L17.7958 19.811C17.874 19.8383 17.9522 19.8725 18.0268 19.9033L18.0375 19.8896C16.1361 16.9125 16.4133 13.0161 18.798 10.3295L25.0495 3.3603C26.5101 1.72993 28.5999 0.725042 30.7891 0.56098C32.6976 0.256781 35.3276 1.12153 36.9659 2.46821L37.1081 2.58442ZM26.3822 18.1738L25.0814 19.623L25.3089 19.6264H25.316L25.5293 19.6196H25.5328L25.5826 19.6162H25.5897C26.3396 19.5615 27.0788 19.3154 27.7078 18.8847C27.8287 18.8027 27.9495 18.7104 28.0703 18.6044C28.177 18.5122 28.2907 18.4028 28.4009 18.2797L28.4435 18.2353L34.6452 11.3173C35.1676 10.7363 35.4839 10.0356 35.5977 9.3144C35.6225 9.16401 35.6368 9.01704 35.6439 8.88373C35.651 8.7436 35.6474 8.59321 35.6403 8.44623V8.42914L35.6368 8.39155C35.5799 7.67036 35.324 6.95942 34.8762 6.35444C34.7909 6.23823 34.695 6.12543 34.599 6.02289L34.5883 6.00922C34.4853 5.89985 34.3715 5.79047 34.2543 5.68793L34.2329 5.67084L34.2152 5.65375L34.1761 5.62641C33.5755 5.13764 32.8611 4.84028 32.1219 4.73432H32.1112C31.9584 4.71381 31.8091 4.69672 31.6705 4.6933C31.5248 4.68647 31.372 4.68989 31.2192 4.69672H31.1943L31.1587 4.70014C30.4089 4.75483 29.6696 5.00092 29.0406 5.43159C28.9197 5.51362 28.7989 5.6059 28.6923 5.69819L28.6816 5.70844C28.5643 5.80756 28.4542 5.91694 28.3476 6.03315L28.3049 6.07758L22.1068 12.9921C21.5843 13.5732 21.268 14.2739 21.1543 14.9951C21.133 15.142 21.1152 15.289 21.1117 15.4257C21.1046 15.5659 21.1081 15.7163 21.1152 15.8632L21.1188 15.9145V15.9179V15.9248C21.1294 16.082 21.1508 16.2358 21.1827 16.393L22.4551 14.9746L22.4906 14.9335L22.5368 14.8857L22.5439 14.8789C23.0024 14.4038 23.6172 14.1337 24.2463 14.0927C24.8789 14.0483 25.5328 14.226 26.0588 14.6396L26.0659 14.643L26.0979 14.6704L26.105 14.6772L26.1121 14.684L26.1157 14.6874L26.1228 14.6909L26.1476 14.7114C26.8798 15.3369 27.1499 16.2836 26.9331 17.1484C26.8904 17.3193 26.8265 17.4902 26.7412 17.6542C26.663 17.8115 26.5599 17.9619 26.4462 18.102L26.4391 18.1088L26.4284 18.1225L26.4249 18.1293L26.3893 18.1704L26.3822 18.1738ZM14.2383 27.9218C15.0663 28.6088 16.328 28.52 17.0424 27.7236L19.0255 25.5122C19.2565 26.0078 19.3951 26.5375 19.4377 27.0742C19.5266 28.2499 19.157 29.4565 18.304 30.4067L12.0988 37.3247C11.2458 38.2783 10.0623 38.8081 8.84333 38.8935C7.64209 38.979 6.41241 38.6372 5.43507 37.851L5.37821 37.8032C4.3902 36.9829 3.83578 35.8447 3.74693 34.6723C3.65808 33.5102 4.01703 32.3173 4.84866 31.374L4.88065 31.3398L11.0113 24.5039L11.0859 24.4218C11.9388 23.4716 13.1223 22.9384 14.3413 22.853C14.9029 22.812 15.4715 22.8666 16.0153 23.0136L14.0321 25.225C13.3178 26.0214 13.4102 27.2348 14.2383 27.9218Z" fill="black"/>
</g>
<defs>
<clipPath id="clip0_1192_11459">
<rect width="40" height="42" fill="white" transform="translate(0 0.5)"/>
</clipPath>
</defs>
</svg>
