<svg width="43" height="43" viewBox="0 0 43 43" fill="none" xmlns="http://www.w3.org/2000/svg">
<path d="M39.3911 3.60678L4.65713 16.9288L15.1826 21.9574L31.3006 11.6098L21.2067 28.1792L26.1185 38.3483L39.3841 3.60678H39.3911ZM0.850423 15.5676L41.1068 0.128424C41.2697 0.0490732 41.4474 0.00436553 41.6286 -0.00286323C41.8098 -0.010092 41.9906 0.020316 42.1593 0.0864318C42.4876 0.211118 42.7528 0.460569 42.8968 0.780056C43.0409 1.09954 43.052 1.46297 42.9277 1.79061L27.5079 42.1486C27.4149 42.3885 27.2538 42.5961 27.0443 42.7461C26.8348 42.8961 26.586 42.9819 26.3284 42.9931C26.0708 43.0042 25.8155 42.9402 25.5937 42.8088C25.372 42.6775 25.1935 42.4846 25.08 42.2536L17.1263 25.8066L0.752185 17.9821C0.519872 17.8709 0.325309 17.6942 0.192523 17.4739C0.0597367 17.2537 -0.00545726 16.9994 0.00499138 16.7426C0.01544 16.4858 0.101074 16.2376 0.251318 16.0288C0.401562 15.82 0.609837 15.6596 0.850423 15.5676Z" fill="black"/>
</svg>
